<?xml version="1.0" encoding="utf-8"?>
<!-- Generator: Adobe Illustrator 16.0.0, SVG Export Plug-In . SVG Version: 6.00 Build 0)  -->
<!DOCTYPE svg PUBLIC "-//W3C//DTD SVG 1.1//EN" "http://www.w3.org/Graphics/SVG/1.1/DTD/svg11.dtd">
<svg version="1.1" id="Layer_1" xmlns="http://www.w3.org/2000/svg" xmlns:xlink="http://www.w3.org/1999/xlink" x="0px" y="0px"
	 width="64px" height="64px" viewBox="0 0 64 64" enable-background="new 0 0 64 64" xml:space="preserve">
<path fill-rule="evenodd" clip-rule="evenodd" fill="#FFFFFF" d="M63.803,25.954l-0.537-1.104l-0.908-0.686
	c-1.188-0.925-7.188,0.112-8.807-1.349c-1.145-1.053-1.318-2.85-1.668-5.406c-0.643-4.967-1.055-5.028-1.832-6.706
	C47.221,4.727,39.557,0,34.289,0H20.018C8.791,0,0,8.378,0,19.557v23.715C0,54.43,8.791,64,20.018,64h23.447
	c11.227,0,20.338-9.352,20.402-20.509L64,26.852L63.803,25.954z M20.275,16.41H31.59c2.16,0,3.908,1.963,3.908,4.093
	c0,2.128-1.748,4.112-3.908,4.112H20.275c-2.158,0-3.908-1.984-3.908-4.112C16.367,18.373,18.117,16.41,20.275,16.41z M43.271,47.59
	H20.275c-2.158,0-3.908-1.995-3.908-4.103c0-2.129,1.75-4.103,3.908-4.103h22.996c2.137,0,3.883,1.974,3.883,4.103
	C47.154,45.595,45.408,47.59,43.271,47.59z"/>
</svg>
