<?xml version="1.0" encoding="utf-8"?>
<!-- Generator: Adobe Illustrator 16.0.0, SVG Export Plug-In . SVG Version: 6.00 Build 0)  -->
<!DOCTYPE svg PUBLIC "-//W3C//DTD SVG 1.1//EN" "http://www.w3.org/Graphics/SVG/1.1/DTD/svg11.dtd">
<svg version="1.1" id="Layer_1" xmlns="http://www.w3.org/2000/svg" xmlns:xlink="http://www.w3.org/1999/xlink" x="0px" y="0px"
	 width="64px" height="64px" viewBox="0 0 64 64" enable-background="new 0 0 64 64" xml:space="preserve">
<path fill="#FFFFFF" d="M33.166,63c-7.604,0-14.559-2.772-19.936-7.358L0,57.445L5.111,44.86C3.33,40.941,2.332,36.59,2.332,32
	c0-17.12,13.805-31,30.834-31S64,14.88,64,32C64,49.123,50.195,63,33.166,63z M50.004,31.911v-0.087
	c0-8.944-6.324-15.324-17.23-15.324H20.996v31H32.6C43.59,47.501,50.004,40.856,50.004,31.911L50.004,31.911z M32.904,39.884h-3.445
	V24.12h3.445c5.059,0,8.418,2.876,8.418,7.839v0.087C41.322,37.05,37.963,39.884,32.904,39.884z"/>
</svg>
