<?xml version="1.0" encoding="utf-8"?>
<!-- Generator: Adobe Illustrator 16.0.0, SVG Export Plug-In . SVG Version: 6.00 Build 0)  -->
<!DOCTYPE svg PUBLIC "-//W3C//DTD SVG 1.1//EN" "http://www.w3.org/Graphics/SVG/1.1/DTD/svg11.dtd">
<svg version="1.1" id="Layer_1" xmlns="http://www.w3.org/2000/svg" xmlns:xlink="http://www.w3.org/1999/xlink" x="0px" y="0px"
	 width="64px" height="64px" viewBox="0 0 64 64" enable-background="new 0 0 64 64" xml:space="preserve">
<path fill="#FFFFFF" d="M54.402,19.328C47.271,10.609,41.52,9.84,37.881,7.761C35.277,6.272,32.875,3.652,29.82,0
	c-0.205,1.974-0.416,3.942-1.705,5.396c-2.533,2.863-5.973,4.621-8.777,6.006C12.205,14.918,4,23.109,4,36.199
	c0,6.339,2.441,13.162,7.051,18.419c4.9,5.595,12.236,9.425,20.951,9.382c7.787-0.039,14.182-2.586,18.986-6.743
	C56.611,52.395,60,45.253,60,36.199C60,29.529,58.014,23.752,54.402,19.328z M46.518,58.188c-3.439,2.875-12.746,4.515-17.174,0.855
	c-0.436-0.361-0.451-0.904-0.164-1.219c0.215-0.237,0.402-0.346,0.66-0.495c0.322-0.185,0.736-0.111,1.016,0.144
	c1.744,1.615,9.99,2.969,14.945-0.367c0.182-0.123,0.418-0.206,0.619-0.117c0.15,0.064,0.242,0.145,0.262,0.317
	C46.713,57.583,46.732,58.005,46.518,58.188z M34.928,53.833c0.012-0.414,0.127-0.671,0.422-0.962
	c1.695-1.693,3.5-2.695,5.525-2.646c3.234,0.081,3.373,0.843,4.314,2.737c0.188,0.385,0.078,0.718-0.045,0.913
	c-0.066,0.107-0.438,0.463-0.562,0.463c-0.312,0-0.426-0.114-0.553-0.43c-0.771-1.93-1.914-1.938-3.359-1.938
	c-2.221-0.002-3.189,1.083-4.502,2.171c-0.328,0.271-0.635,0.473-0.881,0.269C35.09,54.241,34.924,54.008,34.928,53.833z
	 M52.281,53.133c-3.09-0.24-6.535-7.363-9.934-7.305c-4.475,0.076-11.033,7.618-18.398,7.51c-3.758-0.057-7.805-1.429-7.928-7.162
	c-0.102-4.776,4.555-9.741,10.471-9.6c7.861,0.185,11.734,7.072,15.666,7.097c3.854,0.027,8.385-5.999,12.277-6.094
	c2.074-0.049,3.674,1.953,3.828,4.741C58.496,46.503,55.842,53.407,52.281,53.133z"/>
</svg>
