<?xml version="1.0" encoding="utf-8"?>
<!-- Generator: Adobe Illustrator 16.0.0, SVG Export Plug-In . SVG Version: 6.00 Build 0)  -->
<!DOCTYPE svg PUBLIC "-//W3C//DTD SVG 1.1//EN" "http://www.w3.org/Graphics/SVG/1.1/DTD/svg11.dtd">
<svg version="1.1" id="Layer_1" xmlns="http://www.w3.org/2000/svg" xmlns:xlink="http://www.w3.org/1999/xlink" x="0px" y="0px"
	 width="64px" height="64px" viewBox="0 0 64 64" enable-background="new 0 0 64 64" xml:space="preserve">
<g>
	<g>
		<path fill-rule="evenodd" clip-rule="evenodd" fill="#FFFFFF" d="M28.535,53.871c-8.101,0.507-15.911-0.314-22.614-5.395
			c-6.51-4.934-7.767-12.797-3.195-20.017c1.652-2.608,3.812-4.89,5.886-7.503c-1.271-0.816-2.735-1.757-4.525-2.908
			c5.8-1.513,11.266-2.94,16.729-4.367c-7.926,5.743-13.51,12.75-11.604,23.208C11.142,47.483,18.85,51.88,28.535,53.871z"/>
		<path fill-rule="evenodd" clip-rule="evenodd" fill="#FFFFFF" d="M42.886,50.303c8.658-5.844,14.26-13.327,11.701-24.179
			c-2.312-9.799-9.81-14.042-19.633-15.646c0.792-0.25,1.122-0.439,1.459-0.449c6.999-0.212,13.781,0.654,19.899,4.407
			c7.067,4.335,9.586,11.481,6.191,18.767c-1.4,3.009-3.836,5.531-5.828,8.257c-0.396,0.544-0.908,1.005-1.493,1.637
			c1.525,0.962,3.006,1.897,4.738,2.99c-5.651,1.489-10.962,2.891-16.275,4.279C43.469,50.412,43.262,50.339,42.886,50.303z"/>
		<path fill-rule="evenodd" clip-rule="evenodd" fill="#FFFFFF" d="M40.586,38.635c-3.767,4.279-8.521,5.993-14.096,5.073
			c-5.304-0.874-8.124-5.931-6.82-11.836c1.738-7.865,10.329-13.672,18.205-12.307c4.494,0.78,6.31,5.075,3.267,8.501
			c-1.568,1.766-3.913,3.018-6.134,3.96c-2.251,0.956-4.773,1.288-7.196,1.805c-1.112,0.237-1.591,0.674-1.604,1.927
			c-0.05,4.76,3.244,7.271,7.894,5.655c1.638-0.569,3.022-1.859,4.55-2.774c0.517-0.31,1.117-0.479,1.679-0.711
			C40.415,38.164,40.5,38.398,40.586,38.635z M26.594,32.785c4.57-0.782,8.284-2.279,9.694-6.905
			c0.499-1.633,0.682-3.47-1.059-4.463c-1.769-1.008-3.307-0.085-4.536,1.304C28.23,25.504,27.244,28.902,26.594,32.785z"/>
	</g>
</g>
</svg>
