<?xml version="1.0" encoding="utf-8"?>
<!-- Generator: Adobe Illustrator 16.0.0, SVG Export Plug-In . SVG Version: 6.00 Build 0)  -->
<!DOCTYPE svg PUBLIC "-//W3C//DTD SVG 1.1//EN" "http://www.w3.org/Graphics/SVG/1.1/DTD/svg11.dtd">
<svg version="1.1" id="Layer_1" xmlns="http://www.w3.org/2000/svg" xmlns:xlink="http://www.w3.org/1999/xlink" x="0px" y="0px"
	 width="64px" height="64px" viewBox="0 0 64 64" enable-background="new 0 0 64 64" xml:space="preserve">
<path fill-rule="evenodd" clip-rule="evenodd" fill="#FFFFFF" d="M6.747,16.938c-1.446,4.841-0.265,10.302,3.554,14.124l1.229,1.23
	l6.319,6.322l6.691,6.689l6.312-6.326l-6.683-6.686l-6.32-6.321l-1.235-1.235c-2.045-2.045-2.047-5.383,0.011-7.442
	c2.051-2.054,5.375-2.054,7.426-0.002l0.489,0.491l6.317-6.322l-0.492-0.493c-3.602-3.606-8.657-4.867-13.277-3.782
	C16.429,3.111,12.899,0.002,8.643,0C3.914,0,0.082,3.842,0.082,8.572C0.082,12.656,2.93,16.072,6.747,16.938z M25.287,18.529
	l6.319-6.32l1.23-1.229c3.805-3.808,9.225-5.006,14.041-3.591C47.452,3.217,51.033,0,55.357,0c4.73,0,8.562,3.838,8.562,8.572
	c0,4.354-3.236,7.949-7.432,8.5c1.375,4.805,0.174,10.191-3.604,13.978l-0.49,0.496l-6.313-6.328l0.486-0.491
	c2.052-2.052,2.052-5.381,0.002-7.433c-2.043-2.046-5.357-2.049-7.418,0.011l-1.23,1.23l-6.32,6.323l-6.682,6.688L18.6,25.223
	L25.287,18.529z M64,55.43c0,4.736-3.834,8.57-8.559,8.57c-4.148,0-7.604-2.945-8.394-6.861c-4.857,1.496-10.367,0.318-14.211-3.531
	l-0.482-0.484l6.314-6.326l0.482,0.486c2.051,2.053,5.377,2.053,7.426,0.002c2.044-2.047,2.052-5.365-0.01-7.428l-1.236-1.238
	l-6.312-6.326l-6.67-6.686l6.32-6.32l6.662,6.681l6.315,6.325l1.238,1.242c3.635,3.637,4.891,8.752,3.756,13.406
	C60.801,47.525,64,51.105,64,55.43z M37.921,46.051l-6.314,6.326l-1.24,1.24c-3.645,3.652-8.79,4.893-13.458,3.734
	C16.035,61.162,12.63,63.998,8.563,64C3.833,64,0,60.164,0,55.43c0-4.053,2.81-7.451,6.584-8.344
	c-1.193-4.697,0.047-9.885,3.717-13.561l0.483-0.482l6.318,6.32l-0.488,0.486c-2.05,2.055-2.05,5.379,0.003,7.436
	c2.056,2.059,5.389,2.057,7.434,0.008l1.235-1.24l6.313-6.322l6.672-6.688l6.311,6.326L37.921,46.051z"/>
</svg>
