<?xml version="1.0" encoding="utf-8"?>
<!-- Generator: Adobe Illustrator 16.0.0, SVG Export Plug-In . SVG Version: 6.00 Build 0)  -->
<!DOCTYPE svg PUBLIC "-//W3C//DTD SVG 1.1//EN" "http://www.w3.org/Graphics/SVG/1.1/DTD/svg11.dtd">
<svg version="1.1" id="Layer_1" xmlns="http://www.w3.org/2000/svg" xmlns:xlink="http://www.w3.org/1999/xlink" x="0px" y="0px"
	 width="64px" height="64px" viewBox="0 0 64 64" enable-background="new 0 0 64 64" xml:space="preserve">
<path fill-rule="evenodd" clip-rule="evenodd" fill="#FFFFFF" d="M61,18.314c-0.075-1.32-1.027-3.119-2.129-3.77L33.849,0.402
	c-0.913-0.502-2.562-0.549-3.458-0.057L5.037,14.703c-1.078,0.635-2.073,2.451-2.036,3.739v27.161
	c-0.002,1.39,1.105,3.327,2.283,4.025l24.669,13.927c1.105,0.596,3.087,0.593,4.195-0.002l24.34-13.703
	c1.282-0.764,2.368-2.837,2.482-4.386L61,18.314z M41.498,37.606c2.295-0.135,3.842,0.095,3.842,3.14
	c0,2.901-1.005,3.75-3.785,3.685c-6.359-0.149-12.729-0.158-19.087,0.005c-2.868,0.074-3.687-0.959-3.701-3.762
	c-0.014-3.115,1.69-3.171,3.907-3.07c0.994,0.044,1.995-0.115,2.992-0.182c-5.043-2.629-8.854-5.554-6.076-12.311
	c2.244,1.154,4.637,2.065,6.661,3.496c3.862,2.73,7.437,3.094,11.385,0.123c1.993-1.502,4.432-2.413,6.705-3.609
	c2.128,6.071,1.722,6.832-6.839,12.235C39.377,37.484,40.445,37.67,41.498,37.606z"/>
</svg>
