<?xml version="1.0" encoding="utf-8"?>
<!-- Generator: Adobe Illustrator 16.0.0, SVG Export Plug-In . SVG Version: 6.00 Build 0)  -->
<!DOCTYPE svg PUBLIC "-//W3C//DTD SVG 1.1//EN" "http://www.w3.org/Graphics/SVG/1.1/DTD/svg11.dtd">
<svg version="1.1" id="Layer_1" xmlns="http://www.w3.org/2000/svg" xmlns:xlink="http://www.w3.org/1999/xlink" x="0px" y="0px"
	 width="64px" height="64px" viewBox="0 0 64 64" enable-background="new 0 0 64 64" xml:space="preserve">
<path fill="#FFFFFF" d="M53.02,35.52c-6.04-0.959-8.798-1.385-11.026-2.666c-2.078-1.194-11.533-9.445-11.584-15.569
	c0.033-0.269,0.055-0.537,0.074-0.809c0.025-0.156,0.021-0.322,0.057-0.475l-0.031,0.037c0.006-0.227,0.031-0.449,0.031-0.678
	C30.54,6.878,23.705,0,15.269,0C6.838,0,0,6.878,0,15.361c0,8.48,6.838,15.359,15.269,15.359c0.654,0,1.295-0.057,1.93-0.137
	l-0.124,0.137c0,0,10.92,0.854,16.542,14.293c0,0,0.744,7.039,1.908,9.6c1.168,2.561,5.52,9.174,11.35,9.387l-5.941-9.861
	l5.941-10.51l12.298-0.322l4.668,8.746C63.84,52.053,66.174,37.547,53.02,35.52z M20.837,25.75H9.597L3.339,15.314L9.597,4.88
	h11.559l6.042,10.219L20.837,25.75z"/>
</svg>
