<?xml version="1.0" encoding="utf-8"?>
<!-- Generator: Adobe Illustrator 16.0.0, SVG Export Plug-In . SVG Version: 6.00 Build 0)  -->
<!DOCTYPE svg PUBLIC "-//W3C//DTD SVG 1.1//EN" "http://www.w3.org/Graphics/SVG/1.1/DTD/svg11.dtd">
<svg version="1.1" id="Layer_1" xmlns="http://www.w3.org/2000/svg" xmlns:xlink="http://www.w3.org/1999/xlink" x="0px" y="0px"
	 width="64px" height="64px" viewBox="0 0 64 64" enable-background="new 0 0 64 64" xml:space="preserve">
<path fill="#FFFFFF" d="M23.698,42.3c-0.182,0.116-0.357,0.253-0.518,0.411c-1.207,1.186-1.207,3.105,0,4.287
	c1.205,1.189,3.162,1.189,4.453,0.016l19.648-19.305c2.412-2.369,6.322-2.369,8.734,0c2.414,2.369,2.414,6.213,0,8.582
	l-18.635,18.39c2.414,2.366,6.324,2.366,8.734,0L60.384,40.58c4.822-4.738,4.822-12.422,0-17.158
	c-4.824-4.736-12.643-4.736-17.469,0L23.698,42.3z M53.747,29.842c-1.207-1.184-3.16-1.184-4.369,0
	c-0.16,0.162-0.301,0.33-0.416,0.512L29.819,49.157c-2.414,2.371-6.322,2.371-8.734,0l-0.088-0.014
	c-1.203-1.183-3.158-1.183-4.365,0c-1.207,1.188-1.207,3.107,0,4.291c0.152,0.147,0.318,0.282,0.492,0.393
	c4.848,4.354,12.369,4.227,17.061-0.379l19.562-19.314C54.952,32.947,54.952,31.025,53.747,29.842z M21.085,40.58l19.561-19.316
	c1.205-1.186,1.205-3.105,0-4.287c-1.205-1.188-3.16-1.188-4.367,0c-0.16,0.156-0.299,0.326-0.418,0.51L16.718,36.291
	c-2.412,2.369-6.322,2.369-8.732,0c-2.412-2.369-2.412-6.213,0-8.582L26.618,9.32c-2.412-2.367-6.322-2.367-8.734,0L3.618,23.422
	c-4.824,4.736-4.824,12.42,0,17.158C8.44,45.315,16.263,45.315,21.085,40.58z M10.081,29.842c-1.207,1.184-1.207,3.105,0,4.292
	c1.205,1.184,3.162,1.184,4.453,0.01l19.65-19.3c2.287-2.248,5.928-2.365,8.354-0.343l0.289,0.329c1.207,1.182,3.164,1.182,4.369,0
	c1.188-1.168,1.242-3.09,0.086-4.275c-4.822-4.74-12.641-4.74-17.463,0L10.599,29.434C10.417,29.549,10.243,29.684,10.081,29.842z"
	/>
</svg>
