<?xml version="1.0" encoding="utf-8"?>
<!-- Generator: Adobe Illustrator 16.0.0, SVG Export Plug-In . SVG Version: 6.00 Build 0)  -->
<!DOCTYPE svg PUBLIC "-//W3C//DTD SVG 1.1//EN" "http://www.w3.org/Graphics/SVG/1.1/DTD/svg11.dtd">
<svg version="1.1" id="Layer_1" xmlns="http://www.w3.org/2000/svg" xmlns:xlink="http://www.w3.org/1999/xlink" x="0px" y="0px"
	 width="64px" height="64px" viewBox="0 0 64 64" enable-background="new 0 0 64 64" xml:space="preserve">
<path fill="#FFFFFF" d="M33,0v16h14v10H33v16.848c0,3.671,0.982,6.029,1.36,7.078c0.378,1.039,1.481,1.869,2.509,2.492
	c1.363,0.842,2.989,1.264,4.747,1.264c3.123,0,5.384-1.045,9.384-3.13v9.993c-4,1.276-4.892,2.172-7.028,2.687
	c-2.137,0.516-4.382,0.768-6.862,0.768c-2.82,0-5.279-0.365-7.447-1.093c-2.166-0.734-3.996-1.779-5.529-3.131
	c-1.529-1.355-3.124-2.793-3.714-4.32C19.828,53.929,19,51.717,19,48.824V26h-6v-8.368c2-0.809,4.634-1.97,6.358-3.483
	c1.729-1.506,3.18-3.637,4.221-5.755C24.628,6.278,25.416,6,25.809,0H33z"/>
</svg>
