<?xml version="1.0" encoding="utf-8"?>
<!-- Generator: Adobe Illustrator 16.0.0, SVG Export Plug-In . SVG Version: 6.00 Build 0)  -->
<!DOCTYPE svg PUBLIC "-//W3C//DTD SVG 1.1 Tiny//EN" "http://www.w3.org/Graphics/SVG/1.1/DTD/svg11-tiny.dtd">
<svg version="1.1" baseProfile="tiny" xmlns="http://www.w3.org/2000/svg" xmlns:xlink="http://www.w3.org/1999/xlink" x="0px"
	 y="0px" width="800px" height="600px" viewBox="0 0 800 600" xml:space="preserve">
<g id="Background">
	<rect fill-rule="evenodd" fill="#F5F5F5" width="800" height="600"/>
</g>
<g id="Publisher__x26__Platform_Logos">
	<g id="HTML">
		<path fill-rule="evenodd" fill="#ED3E35" d="M732,484c0,35.2-28.8,64-64,64s-64-28.8-64-64s28.8-64,64-64S732,448.8,732,484z"/>
		<path fill="#FFFFFF" d="M658.027,498.256L635.5,486.533v-5.129l22.527-11.771v6.636l-15.754,7.777l15.754,7.569V498.256z
			 M675.113,463.34l-9.559,42h-5.578l9.559-42H675.113z M692.729,484.047l-15.756-7.777v-6.636l22.527,11.771v5.129l-22.527,11.723
			v-6.64L692.729,484.047z"/>
	</g>
	<g id="Drupal">
		<path fill-rule="evenodd" fill="#0D8BC7" d="M376,300c0,35.2-28.8,64-64,64s-64-28.8-64-64s28.8-64,64-64S376,264.8,376,300z"/>
		<path fill="#FFFFFF" d="M334.415,287.302c-7.131-8.719-12.883-9.488-16.521-11.567c-2.604-1.488-5.006-4.108-8.061-7.761
			c-0.205,1.974-0.416,3.942-1.705,5.396c-2.533,2.863-5.973,4.621-8.777,6.006c-7.133,3.516-15.338,11.707-15.338,24.797
			c0,6.339,2.441,13.162,7.051,18.419c4.9,5.595,12.236,9.425,20.951,9.382c7.787-0.039,14.182-2.586,18.986-6.743
			c5.623-4.862,9.012-12.004,9.012-21.058C340.013,297.503,338.026,291.726,334.415,287.302z M326.53,326.161
			c-3.439,2.875-12.746,4.515-17.174,0.855c-0.436-0.361-0.451-0.904-0.164-1.219c0.215-0.237,0.402-0.346,0.66-0.495
			c0.322-0.185,0.736-0.111,1.016,0.144c1.744,1.615,9.99,2.969,14.945-0.367c0.182-0.123,0.418-0.206,0.619-0.117
			c0.15,0.064,0.242,0.145,0.262,0.317C326.726,325.557,326.745,325.979,326.53,326.161z M314.94,321.807
			c0.012-0.414,0.127-0.671,0.422-0.962c1.695-1.693,3.5-2.695,5.525-2.646c3.234,0.081,3.373,0.843,4.314,2.737
			c0.188,0.385,0.078,0.718-0.045,0.913c-0.066,0.107-0.438,0.463-0.562,0.463c-0.312,0-0.426-0.114-0.553-0.43
			c-0.771-1.93-1.914-1.938-3.359-1.938c-2.221-0.002-3.189,1.083-4.502,2.171c-0.328,0.271-0.635,0.473-0.881,0.269
			C315.103,322.215,314.937,321.981,314.94,321.807z M332.294,321.106c-3.09-0.24-6.535-7.363-9.934-7.305
			c-4.475,0.076-11.033,7.618-18.398,7.51c-3.758-0.057-7.805-1.429-7.928-7.162c-0.102-4.776,4.555-9.741,10.471-9.6
			c7.861,0.185,11.734,7.072,15.666,7.097c3.854,0.027,8.385-5.999,12.277-6.094c2.074-0.049,3.674,1.953,3.828,4.741
			C338.509,314.477,335.854,321.381,332.294,321.106z"/>
	</g>
	<g id="MoveableType">
		<path fill-rule="evenodd" fill="#9CBACA" d="M376,484c0,35.2-28.8,64-64,64s-64-28.8-64-64s28.8-64,64-64S376,448.8,376,484z"/>
		<path fill="#FFFFFF" d="M332.795,487.265c-6.041-0.959-8.799-1.386-11.027-2.666c-2.078-1.194-11.533-9.445-11.584-15.569
			c0.033-0.269,0.055-0.537,0.074-0.809c0.025-0.156,0.021-0.322,0.057-0.475l-0.031,0.037c0.006-0.227,0.031-0.449,0.031-0.678
			c0-8.482-6.836-15.361-15.271-15.361c-8.432,0-15.27,6.879-15.27,15.361c0,8.48,6.838,15.359,15.27,15.359
			c0.654,0,1.295-0.057,1.93-0.137l-0.124,0.137c0,0,10.921,0.854,16.542,14.294c0,0,0.744,7.038,1.908,9.599
			c1.168,2.562,5.519,9.174,11.35,9.388l-5.941-9.862l5.941-10.51l12.298-0.322l4.668,8.746
			C343.615,503.797,345.949,489.291,332.795,487.265z M300.612,477.494h-11.24l-6.259-10.436l6.259-10.434h11.559l6.043,10.219
			L300.612,477.494z"/>
	</g>
	<g id="Kirby">
		<path fill-rule="evenodd" fill="#FF0400" d="M198,484c0,35.2-28.8,64-64,64s-64-28.8-64-64s28.8-64,64-64S198,448.8,198,484z"/>
		<path fill-rule="evenodd" fill="#FFFFFF" d="M162.79,480.314c-0.074-1.32-1.021-3.119-2.117-3.77l-24.893-14.143
			c-0.908-0.502-2.549-0.549-3.439-0.057l-25.223,14.357c-1.072,0.635-2.062,2.451-2.025,3.739v27.16
			c-0.002,1.39,1.1,3.327,2.271,4.025l24.541,13.927c1.1,0.596,3.07,0.594,4.174-0.002l24.213-13.703
			c1.275-0.763,2.355-2.837,2.469-4.385L162.79,480.314z M143.389,499.606c2.283-0.135,3.822,0.095,3.822,3.14
			c0,2.902-1,3.75-3.766,3.685c-6.326-0.149-12.662-0.157-18.988,0.005c-2.854,0.074-3.668-0.959-3.682-3.762
			c-0.014-3.115,1.682-3.171,3.887-3.07c0.988,0.044,1.984-0.115,2.977-0.182c-5.018-2.629-8.809-5.554-6.045-12.311
			c2.232,1.154,4.613,2.065,6.627,3.496c3.842,2.73,7.398,3.094,11.326,0.123c1.982-1.502,4.408-2.413,6.67-3.609
			c2.117,6.071,1.713,6.832-6.803,12.234C141.28,499.484,142.342,499.67,143.389,499.606z"/>
	</g>
	<g id="Expression_Engine">
		<path fill-rule="evenodd" fill="#5C81A5" d="M732,300c0,35.2-28.8,64-64,64s-64-28.8-64-64s28.8-64,64-64S732,264.8,732,300z"/>
		<g>
			<g>
				<path fill-rule="evenodd" fill="#FFFFFF" d="M663.82,326.093c-9.77,0.607-19.189-0.377-27.273-6.461
					c-7.852-5.908-9.367-15.327-3.854-23.975c1.992-3.123,4.598-5.856,7.098-8.986c-1.533-0.978-3.299-2.104-5.457-3.482
					c6.994-1.812,13.586-3.521,20.176-5.23c-9.559,6.879-16.293,15.271-13.994,27.796
					C642.844,318.442,652.141,323.708,663.82,326.093z"/>
				<path fill-rule="evenodd" fill="#FFFFFF" d="M681.129,321.819c10.441-7,17.197-15.963,14.111-28.959
					c-2.787-11.736-11.83-16.818-23.678-18.739c0.955-0.3,1.354-0.526,1.76-0.538c8.441-0.254,16.621,0.783,24,5.278
					c8.523,5.192,11.561,13.751,7.467,22.478c-1.689,3.604-4.627,6.625-7.029,9.889c-0.479,0.652-1.096,1.203-1.801,1.961
					c1.84,1.152,3.625,2.271,5.715,3.582c-6.816,1.783-13.221,3.461-19.629,5.125C681.832,321.95,681.582,321.862,681.129,321.819z"
					/>
				<path fill-rule="evenodd" fill="#FFFFFF" d="M678.355,307.844c-4.543,5.126-10.277,7.179-17.002,6.077
					c-6.396-1.047-9.797-7.104-8.225-14.176c2.096-9.42,12.457-16.376,21.955-14.74c5.42,0.934,7.609,6.078,3.939,10.182
					c-1.891,2.115-4.719,3.615-7.396,4.744c-2.717,1.145-5.758,1.541-8.68,2.161c-1.342,0.284-1.918,0.807-1.934,2.308
					c-0.061,5.701,3.912,8.709,9.521,6.773c1.975-0.682,3.645-2.227,5.486-3.323c0.623-0.371,1.348-0.572,2.025-0.852
					C678.148,307.28,678.252,307.562,678.355,307.844z M661.48,300.838c5.512-0.937,9.99-2.729,11.691-8.271
					c0.602-1.956,0.822-4.156-1.277-5.346c-2.133-1.207-3.988-0.103-5.471,1.562C663.453,292.118,662.264,296.188,661.48,300.838z"
					/>
			</g>
		</g>
	</g>
	<g id="Typepad">
		<path fill-rule="evenodd" fill="#629841" d="M554,300c0,35.2-28.8,64-64,64s-64-28.8-64-64s28.8-64,64-64S554,264.8,554,300z"/>
		<path fill="#FFFFFF" d="M490.035,280.999c-17.674,0-32.002,8.598-32.002,19.201c0,2.254,0.912,5.901,2.1,6.425
			c1.189,0.522,4.453,1.819,33.396-10.229c0,0-24.256,10.909-26.215,15.601c-0.674,1.609,5.744,7.004,22.721,7.004
			c17.672,0,31.998-8.397,31.998-18.999C522.033,289.396,507.707,280.999,490.035,280.999z"/>
	</g>
	<g id="Disqus">
		<path fill-rule="evenodd" fill="#2E9FFF" d="M554,484c0,35.2-28.8,64-64,64s-64-28.8-64-64s28.8-64,64-64S554,448.8,554,484z"/>
		<path fill="#FFFFFF" d="M491.154,515c-7.604,0-14.559-2.772-19.936-7.358l-13.23,1.804l5.111-12.585
			c-1.781-3.919-2.779-8.271-2.779-12.86c0-17.12,13.805-31,30.834-31s30.834,13.88,30.834,31
			C521.988,501.123,508.184,515,491.154,515z M507.992,483.911v-0.087c0-8.944-6.324-15.324-17.23-15.324h-11.777v31h11.604
			C501.578,499.501,507.992,492.856,507.992,483.911L507.992,483.911z M490.893,491.884h-3.445V476.12h3.445
			c5.059,0,8.418,2.876,8.418,7.839v0.087C499.311,489.05,495.951,491.884,490.893,491.884z"/>
	</g>
	<g id="Joomla">
		<path fill-rule="evenodd" fill="#5E5E5E" d="M198,300c0,35.2-28.8,64-64,64s-64-28.8-64-64s28.8-64,64-64S198,264.8,198,300z"/>
		<path fill-rule="evenodd" fill="#FFFFFF" d="M108.456,284.938c-1.446,4.841-0.265,10.302,3.554,14.124l1.229,1.231l6.319,6.322
			l6.69,6.689l6.312-6.326l-6.683-6.686l-6.319-6.322l-1.235-1.235c-2.045-2.045-2.047-5.383,0.011-7.442
			c2.051-2.054,5.375-2.054,7.426-0.002l0.489,0.491l6.318-6.322l-0.492-0.493c-3.603-3.606-8.657-4.867-13.277-3.782
			c-0.66-4.074-4.19-7.184-8.446-7.186c-4.729,0-8.561,3.842-8.561,8.572C101.791,280.656,104.638,284.072,108.456,284.938z
			 M126.995,286.529l6.319-6.32l1.231-1.229c3.805-3.808,9.225-5.006,14.041-3.591c0.574-4.172,4.153-7.389,8.479-7.389
			c4.73,0,8.562,3.838,8.562,8.572c0,4.354-3.237,7.949-7.433,8.5c1.376,4.805,0.175,10.191-3.603,13.978l-0.49,0.496l-6.312-6.328
			l0.486-0.491c2.051-2.052,2.051-5.381,0.002-7.433c-2.043-2.046-5.357-2.049-7.418,0.011l-1.231,1.23l-6.32,6.323l-6.682,6.688
			l-6.318-6.323L126.995,286.529z M165.708,323.43c0,4.736-3.834,8.57-8.559,8.57c-4.148,0-7.604-2.945-8.393-6.861
			c-4.857,1.496-10.367,0.318-14.211-3.531l-0.483-0.484l6.314-6.326l0.483,0.486c2.051,2.053,5.377,2.053,7.426,0.002
			c2.043-2.047,2.051-5.365-0.01-7.428l-1.236-1.238l-6.312-6.326l-6.67-6.686l6.319-6.32l6.663,6.681l6.314,6.326l1.238,1.242
			c3.635,3.637,4.891,8.752,3.756,13.406C162.508,315.525,165.708,319.105,165.708,323.43z M139.628,314.051l-6.314,6.326
			l-1.239,1.24c-3.646,3.652-8.79,4.893-13.459,3.734c-0.873,3.811-4.277,6.646-8.345,6.648c-4.729,0-8.562-3.836-8.562-8.57
			c0-4.053,2.81-7.451,6.584-8.344c-1.193-4.697,0.047-9.885,3.717-13.561l0.483-0.482l6.318,6.32l-0.488,0.486
			c-2.05,2.055-2.05,5.379,0.003,7.436c2.056,2.059,5.389,2.057,7.434,0.008l1.235-1.24l6.313-6.322l6.672-6.688l6.312,6.326
			L139.628,314.051z"/>
	</g>
	<g id="Squarespace">
		<path fill-rule="evenodd" fill="#333333" d="M732,118c0,35.2-28.8,64-64,64s-64-28.8-64-64s28.8-64,64-64S732,82.8,732,118z"/>
		<path fill="#FFFFFF" d="M659.697,128.3c-0.182,0.116-0.357,0.253-0.518,0.411c-1.207,1.186-1.207,3.105,0,4.287
			c1.205,1.189,3.162,1.189,4.453,0.016l19.648-19.305c2.412-2.369,6.322-2.369,8.734,0c2.414,2.369,2.414,6.213,0,8.582
			l-18.635,18.39c2.414,2.366,6.324,2.366,8.734,0l14.268-14.101c4.822-4.738,4.822-12.422,0-17.158
			c-4.824-4.736-12.643-4.736-17.469,0L659.697,128.3z M689.746,115.842c-1.207-1.184-3.16-1.184-4.369,0
			c-0.16,0.162-0.301,0.33-0.416,0.512l-19.143,18.804c-2.414,2.371-6.322,2.371-8.734,0l-0.088-0.014
			c-1.203-1.183-3.158-1.183-4.365,0c-1.207,1.188-1.207,3.107,0,4.291c0.152,0.147,0.318,0.282,0.492,0.393
			c4.848,4.354,12.369,4.227,17.061-0.379l19.562-19.314C690.951,118.947,690.951,117.025,689.746,115.842z M657.084,126.58
			l19.561-19.316c1.205-1.186,1.205-3.105,0-4.287c-1.205-1.188-3.16-1.188-4.367,0c-0.16,0.156-0.299,0.326-0.418,0.51
			l-19.143,18.805c-2.412,2.369-6.322,2.369-8.732,0c-2.412-2.369-2.412-6.213,0-8.582l18.633-18.389
			c-2.412-2.367-6.322-2.367-8.734,0l-14.266,14.102c-4.824,4.736-4.824,12.42,0,17.158
			C644.439,131.315,652.262,131.315,657.084,126.58z M646.08,115.842c-1.207,1.184-1.207,3.105,0,4.292
			c1.205,1.184,3.162,1.184,4.453,0.01l19.65-19.3c2.287-2.248,5.928-2.365,8.354-0.343l0.289,0.329
			c1.207,1.182,3.164,1.182,4.369,0c1.188-1.168,1.242-3.09,0.086-4.275c-4.822-4.74-12.641-4.74-17.463,0l-19.221,18.879
			C646.416,115.549,646.242,115.684,646.08,115.842z"/>
	</g>
	<g id="Blogger">
		<path fill-rule="evenodd" fill="#F28020" d="M554,118c0,35.2-28.8,64-64,64s-64-28.8-64-64s28.8-64,64-64S554,82.8,554,118z"/>
		<path fill-rule="evenodd" fill="#FFFFFF" d="M521.672,111.954l-0.537-1.104l-0.908-0.686c-1.188-0.925-7.188,0.112-8.807-1.349
			c-1.145-1.053-1.318-2.85-1.668-5.406c-0.643-4.967-1.055-5.028-1.832-6.706C505.09,90.727,497.426,86,492.158,86h-14.271
			c-11.227,0-20.018,8.378-20.018,19.557v23.715c0,11.158,8.791,20.729,20.018,20.729h23.447c11.227,0,20.338-9.352,20.402-20.509
			l0.133-16.64L521.672,111.954z M478.145,102.41h11.314c2.16,0,3.908,1.963,3.908,4.093c0,2.128-1.748,4.112-3.908,4.112h-11.314
			c-2.158,0-3.908-1.984-3.908-4.112C474.236,104.373,475.986,102.41,478.145,102.41z M501.141,133.59h-22.996
			c-2.158,0-3.908-1.995-3.908-4.103c0-2.129,1.75-4.103,3.908-4.103h22.996c2.137,0,3.883,1.974,3.883,4.103
			C505.023,131.595,503.277,133.59,501.141,133.59z"/>
	</g>
	<g id="Tumblr">
		<path fill-rule="evenodd" fill="#375474" d="M376,118c0,35.2-28.8,64-64,64s-64-28.8-64-64s28.8-64,64-64S376,82.8,376,118z"/>
		<path fill="#EAEDF1" d="M312.342,86v16h14v10h-14v16.659c0,3.658,0.812,6.008,1.189,7.052c0.378,1.036,1.396,1.864,2.423,2.483
			c1.363,0.837,3.118,1.259,4.875,1.259c3.123,0,5.512-1.04,9.512-3.119v9.958c-4,1.271-5.062,2.163-7.199,2.678
			c-2.137,0.513-4.468,0.764-6.948,0.764c-2.82,0-5.321-0.363-7.49-1.089c-2.166-0.732-4.017-1.773-5.55-3.119
			c-1.529-1.352-2.964-2.785-3.554-4.305c-0.591-1.521-1.259-3.725-1.259-6.606V112h-6v-8.466c2-0.806,4.463-1.963,6.188-3.472
			c1.729-1.5,3.095-3.606,4.136-5.715c1.049-2.108,1.751-2.347,2.144-8.347H312.342z"/>
	</g>
	<g id="Wordpress">
		<path fill-rule="evenodd" fill="#07A0CA" d="M198,118c0,35.2-28.8,64-64,64s-64-28.8-64-64s28.8-64,64-64S198,82.8,198,118z"/>
		<path fill="#FFFFFF" d="M106.258,118c0,10.864,6.312,20.255,15.471,24.704l-13.095-35.876
			C107.11,110.242,106.258,114.019,106.258,118z M152.24,116.615c0-3.394-1.22-5.743-2.263-7.571
			c-1.393-2.261-2.697-4.174-2.697-6.438c0-2.521,1.912-4.871,4.611-4.871c0.12,0,0.234,0.015,0.354,0.021
			c-4.884-4.474-11.389-7.204-18.538-7.204c-9.591,0-18.025,4.918-22.937,12.371c0.646,0.02,1.252,0.033,1.77,0.033
			c2.869,0,7.314-0.351,7.314-0.351c1.479-0.086,1.656,2.089,0.176,2.265c0,0-1.487,0.173-3.143,0.261l9.998,29.733l6.007-18.017
			l-4.275-11.717c-1.479-0.088-2.879-0.261-2.879-0.261c-1.481-0.089-1.308-2.351,0.174-2.265c0,0,4.532,0.351,7.229,0.351
			c2.871,0,7.316-0.351,7.316-0.351c1.48-0.086,1.655,2.089,0.176,2.265c0,0-1.489,0.173-3.141,0.261l9.92,29.508l2.739-9.148
			C151.54,121.921,152.24,118.966,152.24,116.615z M134.19,120.398l-8.237,23.935c2.46,0.725,5.061,1.118,7.754,1.118
			c3.197,0,6.263-0.553,9.116-1.555c-0.073-0.117-0.141-0.241-0.195-0.38L134.19,120.398z M157.797,104.83
			c0.116,0.875,0.185,1.812,0.185,2.823c0,2.786-0.521,5.917-2.089,9.832l-8.384,24.242c8.163-4.759,13.65-13.601,13.65-23.728
			C161.159,113.226,159.938,108.741,157.797,104.83z M101.708,118c0,17.646,14.356,32,31.999,32c17.644,0,32.001-14.354,32.001-32
			c0-17.645-14.357-32-32.001-32C116.064,86,101.708,100.355,101.708,118z M103.176,118c0-16.834,13.697-30.529,30.531-30.529
			c16.837,0,30.534,13.695,30.534,30.529c0,16.835-13.697,30.533-30.534,30.533C116.873,148.533,103.176,134.835,103.176,118z"/>
	</g>
</g>
</svg>
